<svg width="30" height="23" viewBox="0 0 30 23" fill="none" xmlns="http://www.w3.org/2000/svg">
<path d="M2.03516 10.1528C1.20673 10.1528 0.535156 10.8244 0.535156 11.6528C0.535156 12.4813 1.20673 13.1528 2.03516 13.1528V10.1528ZM29.0958 12.7135C29.6816 12.1277 29.6816 11.178 29.0958 10.5922L19.5499 1.04623C18.9641 0.460444 18.0143 0.460444 17.4286 1.04623C16.8428 1.63202 16.8428 2.58176 17.4286 3.16755L25.9138 11.6528L17.4286 20.1381C16.8428 20.7239 16.8428 21.6736 17.4286 22.2594C18.0143 22.8452 18.9641 22.8452 19.5499 22.2594L29.0958 12.7135ZM2.03516 13.1528H28.0352V10.1528H2.03516V13.1528Z" fill="black" fill-opacity="0.38"/>
</svg>
