<svg width="53" height="23" viewBox="0 0 53 23" fill="none" xmlns="http://www.w3.org/2000/svg">
<path d="M50.7012 12.8403C51.5296 12.8403 52.2012 12.1688 52.2012 11.3403C52.2012 10.5119 51.5296 9.84033 50.7012 9.84033V12.8403ZM0.640512 10.2797C0.0547253 10.8655 0.0547253 11.8152 0.640512 12.401L10.1865 21.9469C10.7722 22.5327 11.722 22.5327 12.3078 21.9469C12.8936 21.3611 12.8936 20.4114 12.3078 19.8256L3.82249 11.3403L12.3078 2.85505C12.8936 2.26926 12.8936 1.31952 12.3078 0.73373C11.722 0.147944 10.7722 0.147944 10.1865 0.73373L0.640512 10.2797ZM50.7012 9.84033L1.70117 9.84033V12.8403L50.7012 12.8403V9.84033Z" fill="black"/>
</svg>
