<svg width="31" height="55" viewBox="0 0 31 55" fill="none" xmlns="http://www.w3.org/2000/svg">
<path d="M27.4918 55C21.1474 54.9964 14.9992 52.7998 10.0889 48.7823C5.17853 44.7649 1.80788 39.1735 0.547929 32.9554C-0.712026 26.7374 0.216178 20.275 3.1753 14.6629C6.13443 9.05085 10.9425 4.63422 16.7851 2.16119C20.1722 0.727659 23.8138 -0.00739806 27.4918 5.6131e-05C28.4716 0.000144082 29.4507 0.0517932 30.4251 0.154789C23.6742 0.873971 17.428 4.06492 12.8888 9.11339C8.34958 14.1618 5.83826 20.711 5.83826 27.5C5.83826 34.2891 8.34958 40.8382 12.8888 45.8867C17.428 50.9351 23.6742 54.1261 30.4251 54.8453C29.4507 54.9483 28.4716 54.9999 27.4918 55Z" fill="black"/>
<path d="M26.2336 29.6692C26.6398 29.6692 26.9669 30.2478 26.9669 30.9621C26.9669 31.6763 26.6376 32.2549 26.2336 32.2549C17.0449 30.9701 17.0449 30.9701 17.0449 30.9621L26.2336 29.6692Z" fill="black"/>
<path d="M30.5449 28.4123C30.5399 28.7506 30.4007 29.0731 30.158 29.3088C29.9153 29.5445 29.5889 29.6742 29.2506 29.6693C28.9123 29.6742 28.5859 29.5445 28.3432 29.3088C28.1005 29.0731 27.9613 28.7506 27.9563 28.4123C29.2425 12.6978 29.2425 12.6978 29.2506 12.6978L30.5449 28.4123Z" fill="black"/>
<path d="M28.9448 32.6333C29.4904 32.6333 29.9326 32.1911 29.9326 31.6455C29.9326 31.1 29.4904 30.6577 28.9448 30.6577C28.3993 30.6577 27.957 31.1 27.957 31.6455C27.957 32.1911 28.3993 32.6333 28.9448 32.6333Z" fill="black"/>
<path d="M18.588 35.523L18.378 36H18L18.924 33.903H19.302L20.226 36H19.848L19.638 35.523H18.588ZM19.494 35.196L19.113 34.332L18.732 35.196H19.494ZM20.4876 35.958C20.4456 35.914 20.4246 35.861 20.4246 35.799C20.4246 35.737 20.4456 35.685 20.4876 35.643C20.5316 35.599 20.5846 35.577 20.6466 35.577C20.7086 35.577 20.7616 35.599 20.8056 35.643C20.8496 35.685 20.8716 35.737 20.8716 35.799C20.8716 35.861 20.8496 35.914 20.8056 35.958C20.7616 36.002 20.7086 36.024 20.6466 36.024C20.5846 36.024 20.5316 36.002 20.4876 35.958ZM21.8718 35.412L22.3398 33.903H22.6578L23.1258 35.412L23.6538 33.903H24.0348L23.3028 36H22.9518L22.5108 34.563H22.4868L22.0458 36H21.6948L20.9628 33.903H21.3438L21.8718 35.412ZM25.495 36H25.189V35.787C25.057 35.945 24.88 36.024 24.658 36.024C24.492 36.024 24.354 35.977 24.244 35.883C24.136 35.789 24.082 35.664 24.082 35.508C24.082 35.35 24.14 35.232 24.256 35.154C24.372 35.076 24.529 35.037 24.727 35.037H25.162V34.977C25.162 34.765 25.044 34.659 24.808 34.659C24.66 34.659 24.506 34.713 24.346 34.821L24.196 34.611C24.39 34.457 24.61 34.38 24.856 34.38C25.044 34.38 25.197 34.428 25.315 34.524C25.435 34.618 25.495 34.767 25.495 34.971V36ZM25.159 35.406V35.271H24.781C24.539 35.271 24.418 35.347 24.418 35.499C24.418 35.577 24.448 35.637 24.508 35.679C24.568 35.719 24.651 35.739 24.757 35.739C24.865 35.739 24.959 35.709 25.039 35.649C25.119 35.589 25.159 35.508 25.159 35.406ZM26.3591 34.674V35.484C26.3591 35.56 26.3791 35.621 26.4191 35.667C26.4591 35.711 26.5151 35.733 26.5871 35.733C26.6591 35.733 26.7281 35.698 26.7941 35.628L26.9321 35.865C26.8141 35.971 26.6831 36.024 26.5391 36.024C26.3971 36.024 26.2751 35.975 26.1731 35.877C26.0731 35.777 26.0231 35.643 26.0231 35.475V34.674H25.8221V34.404H26.0231V33.903H26.3591V34.404H26.7791V34.674H26.3591ZM27.9071 36.024C27.6851 36.024 27.4941 35.949 27.3341 35.799C27.1741 35.647 27.0941 35.449 27.0941 35.205C27.0941 34.961 27.1771 34.763 27.3431 34.611C27.5111 34.457 27.7151 34.38 27.9551 34.38C28.1951 34.38 28.3981 34.463 28.5641 34.629L28.3661 34.872C28.2281 34.752 28.0891 34.692 27.9491 34.692C27.8091 34.692 27.6871 34.739 27.5831 34.833C27.4811 34.925 27.4301 35.045 27.4301 35.193C27.4301 35.339 27.4811 35.463 27.5831 35.565C27.6851 35.667 27.8101 35.718 27.9581 35.718C28.1081 35.718 28.2491 35.65 28.3811 35.514L28.5791 35.73C28.3851 35.926 28.1611 36.024 27.9071 36.024ZM29.2636 35.136V36H28.9276V33.777H29.2636V34.695C29.3116 34.597 29.3836 34.52 29.4796 34.464C29.5776 34.408 29.6826 34.38 29.7946 34.38C29.9746 34.38 30.1196 34.435 30.2296 34.545C30.3416 34.655 30.3976 34.814 30.3976 35.022V36H30.0616V35.124C30.0616 34.83 29.9396 34.683 29.6956 34.683C29.5796 34.683 29.4786 34.722 29.3926 34.8C29.3066 34.876 29.2636 34.988 29.2636 35.136Z" fill="black"/>
</svg>
